<mxfile host="Electron" modified="2024-07-17T08:05:12.462Z" agent="Mozilla/5.0 (Windows NT 10.0; Win64; x64) AppleWebKit/537.36 (KHTML, like Gecko) draw.io/24.6.4 Chrome/124.0.6367.207 Electron/30.0.6 Safari/537.36" etag="L-gFGUK8pmlAs2nu0Dh3" version="24.6.4" type="device">
  <diagram id="C5RBs43oDa-KdzZeNtuy" name="Page-1">
    <mxGraphModel dx="1674" dy="836" grid="1" gridSize="10" guides="1" tooltips="1" connect="1" arrows="1" fold="1" page="1" pageScale="1" pageWidth="827" pageHeight="1169" math="0" shadow="0">
      <root>
        <mxCell id="WIyWlLk6GJQsqaUBKTNV-0" />
        <mxCell id="WIyWlLk6GJQsqaUBKTNV-1" parent="WIyWlLk6GJQsqaUBKTNV-0" />
        <mxCell id="imBFDSDzrtq43pJAZLCd-0" style="edgeStyle=orthogonalEdgeStyle;rounded=0;orthogonalLoop=1;jettySize=auto;html=1;entryX=0.5;entryY=0;entryDx=0;entryDy=0;" edge="1" parent="WIyWlLk6GJQsqaUBKTNV-1" source="imBFDSDzrtq43pJAZLCd-1" target="imBFDSDzrtq43pJAZLCd-13">
          <mxGeometry relative="1" as="geometry" />
        </mxCell>
        <mxCell id="imBFDSDzrtq43pJAZLCd-1" value="THREAT ASSESSMENT" style="swimlane;whiteSpace=wrap;html=1;" vertex="1" parent="WIyWlLk6GJQsqaUBKTNV-1">
          <mxGeometry x="42" y="140" width="744" height="340" as="geometry">
            <mxRectangle x="42" y="140" width="210" height="30" as="alternateBounds" />
          </mxGeometry>
        </mxCell>
        <mxCell id="imBFDSDzrtq43pJAZLCd-2" value="&lt;div&gt;- Check reputation&lt;/div&gt;&lt;div&gt;- Rendering check (URLScan.io)&lt;/div&gt;&lt;div&gt;- Check for redirections&lt;/div&gt;" style="shape=document;whiteSpace=wrap;html=1;boundedLbl=1;" vertex="1" parent="imBFDSDzrtq43pJAZLCd-1">
          <mxGeometry x="20" y="65" width="150" height="80" as="geometry" />
        </mxCell>
        <mxCell id="imBFDSDzrtq43pJAZLCd-3" value="E-commerce, energy, package tracking, etc." style="shape=document;whiteSpace=wrap;html=1;boundedLbl=1;" vertex="1" parent="imBFDSDzrtq43pJAZLCd-1">
          <mxGeometry x="35" y="175" width="120" height="70" as="geometry" />
        </mxCell>
        <mxCell id="imBFDSDzrtq43pJAZLCd-4" value="Identify the service(s) offered by the website" style="rounded=0;whiteSpace=wrap;html=1;" vertex="1" parent="imBFDSDzrtq43pJAZLCd-1">
          <mxGeometry x="228" y="180" width="120" height="60" as="geometry" />
        </mxCell>
        <mxCell id="imBFDSDzrtq43pJAZLCd-5" style="edgeStyle=orthogonalEdgeStyle;rounded=0;orthogonalLoop=1;jettySize=auto;html=1;entryX=0;entryY=0.5;entryDx=0;entryDy=0;" edge="1" parent="imBFDSDzrtq43pJAZLCd-1" source="imBFDSDzrtq43pJAZLCd-3" target="imBFDSDzrtq43pJAZLCd-4">
          <mxGeometry relative="1" as="geometry" />
        </mxCell>
        <mxCell id="imBFDSDzrtq43pJAZLCd-6" value="" style="edgeStyle=orthogonalEdgeStyle;rounded=0;orthogonalLoop=1;jettySize=auto;html=1;" edge="1" parent="imBFDSDzrtq43pJAZLCd-1" source="imBFDSDzrtq43pJAZLCd-7" target="imBFDSDzrtq43pJAZLCd-4">
          <mxGeometry relative="1" as="geometry" />
        </mxCell>
        <mxCell id="imBFDSDzrtq43pJAZLCd-7" value="Retrieve the URL" style="rounded=0;whiteSpace=wrap;html=1;" vertex="1" parent="imBFDSDzrtq43pJAZLCd-1">
          <mxGeometry x="228" y="75" width="120" height="60" as="geometry" />
        </mxCell>
        <mxCell id="imBFDSDzrtq43pJAZLCd-8" style="edgeStyle=orthogonalEdgeStyle;rounded=0;orthogonalLoop=1;jettySize=auto;html=1;entryX=0;entryY=0.5;entryDx=0;entryDy=0;" edge="1" parent="imBFDSDzrtq43pJAZLCd-1" source="imBFDSDzrtq43pJAZLCd-2" target="imBFDSDzrtq43pJAZLCd-7">
          <mxGeometry relative="1" as="geometry" />
        </mxCell>
        <mxCell id="imBFDSDzrtq43pJAZLCd-9" value="" style="edgeStyle=orthogonalEdgeStyle;rounded=0;orthogonalLoop=1;jettySize=auto;html=1;" edge="1" parent="imBFDSDzrtq43pJAZLCd-1" source="imBFDSDzrtq43pJAZLCd-10" target="imBFDSDzrtq43pJAZLCd-11">
          <mxGeometry relative="1" as="geometry" />
        </mxCell>
        <mxCell id="imBFDSDzrtq43pJAZLCd-10" value="Identify the reason for the alert" style="rounded=0;whiteSpace=wrap;html=1;" vertex="1" parent="imBFDSDzrtq43pJAZLCd-1">
          <mxGeometry x="408" y="65" width="120" height="60" as="geometry" />
        </mxCell>
        <mxCell id="imBFDSDzrtq43pJAZLCd-11" value="Virustotal, TrafficLight (BitDefender), Fortinet Rating, etc." style="rounded=0;whiteSpace=wrap;html=1;" vertex="1" parent="imBFDSDzrtq43pJAZLCd-1">
          <mxGeometry x="588" y="65" width="120" height="60" as="geometry" />
        </mxCell>
        <mxCell id="imBFDSDzrtq43pJAZLCd-12" style="edgeStyle=orthogonalEdgeStyle;rounded=0;orthogonalLoop=1;jettySize=auto;html=1;entryX=0.5;entryY=0;entryDx=0;entryDy=0;" edge="1" parent="WIyWlLk6GJQsqaUBKTNV-1" source="imBFDSDzrtq43pJAZLCd-13" target="imBFDSDzrtq43pJAZLCd-16">
          <mxGeometry relative="1" as="geometry" />
        </mxCell>
        <mxCell id="imBFDSDzrtq43pJAZLCd-13" value="DOUBT RESOLUTION" style="swimlane;whiteSpace=wrap;html=1;" vertex="1" parent="WIyWlLk6GJQsqaUBKTNV-1">
          <mxGeometry x="40" y="530" width="748" height="180" as="geometry" />
        </mxCell>
        <mxCell id="imBFDSDzrtq43pJAZLCd-14" value="Known issue ?" style="rhombus;whiteSpace=wrap;html=1;" vertex="1" parent="imBFDSDzrtq43pJAZLCd-13">
          <mxGeometry x="58" y="60" width="92" height="90" as="geometry" />
        </mxCell>
        <mxCell id="imBFDSDzrtq43pJAZLCd-15" value="Previous&lt;br&gt;case ?" style="rhombus;whiteSpace=wrap;html=1;" vertex="1" parent="imBFDSDzrtq43pJAZLCd-13">
          <mxGeometry x="214" y="60" width="92" height="90" as="geometry" />
        </mxCell>
        <mxCell id="imBFDSDzrtq43pJAZLCd-16" value="ACTIONS / RECOMMENDATIONS" style="swimlane;whiteSpace=wrap;html=1;" vertex="1" parent="WIyWlLk6GJQsqaUBKTNV-1">
          <mxGeometry x="40" y="760" width="748" height="240" as="geometry" />
        </mxCell>
        <mxCell id="imBFDSDzrtq43pJAZLCd-17" value="Request reclassification of the domain / URL" style="shape=process;whiteSpace=wrap;html=1;backgroundOutline=1;" vertex="1" parent="imBFDSDzrtq43pJAZLCd-16">
          <mxGeometry x="22" y="50" width="120" height="60" as="geometry" />
        </mxCell>
        <mxCell id="imBFDSDzrtq43pJAZLCd-18" style="edgeStyle=orthogonalEdgeStyle;rounded=0;orthogonalLoop=1;jettySize=auto;html=1;entryX=0.5;entryY=1;entryDx=0;entryDy=0;" edge="1" parent="imBFDSDzrtq43pJAZLCd-16" source="imBFDSDzrtq43pJAZLCd-19" target="imBFDSDzrtq43pJAZLCd-17">
          <mxGeometry relative="1" as="geometry" />
        </mxCell>
        <mxCell id="imBFDSDzrtq43pJAZLCd-19" value="If the solution allows." style="shape=document;whiteSpace=wrap;html=1;boundedLbl=1;" vertex="1" parent="imBFDSDzrtq43pJAZLCd-16">
          <mxGeometry x="22" y="140" width="120" height="80" as="geometry" />
        </mxCell>
        <mxCell id="imBFDSDzrtq43pJAZLCd-20" value="Add Exclusion" style="shape=process;whiteSpace=wrap;html=1;backgroundOutline=1;" vertex="1" parent="imBFDSDzrtq43pJAZLCd-16">
          <mxGeometry x="420" y="50" width="120" height="60" as="geometry" />
        </mxCell>
        <mxCell id="imBFDSDzrtq43pJAZLCd-21" style="edgeStyle=orthogonalEdgeStyle;rounded=0;orthogonalLoop=1;jettySize=auto;html=1;entryX=1;entryY=0.5;entryDx=0;entryDy=0;" edge="1" parent="imBFDSDzrtq43pJAZLCd-16" source="imBFDSDzrtq43pJAZLCd-22" target="imBFDSDzrtq43pJAZLCd-20">
          <mxGeometry relative="1" as="geometry" />
        </mxCell>
        <mxCell id="imBFDSDzrtq43pJAZLCd-22" value="In allow or block list, based on the results and feedback" style="shape=document;whiteSpace=wrap;html=1;boundedLbl=1;" vertex="1" parent="imBFDSDzrtq43pJAZLCd-16">
          <mxGeometry x="610" y="50" width="120" height="105" as="geometry" />
        </mxCell>
        <mxCell id="imBFDSDzrtq43pJAZLCd-23" value="Maintain the blocking" style="shape=process;whiteSpace=wrap;html=1;backgroundOutline=1;" vertex="1" parent="imBFDSDzrtq43pJAZLCd-16">
          <mxGeometry x="220" y="50" width="120" height="60" as="geometry" />
        </mxCell>
        <mxCell id="imBFDSDzrtq43pJAZLCd-24" value="Playbook réalisé par Augmented Security Force - licence&amp;nbsp;CC0 1.0 UNIVERSAL" style="text;html=1;align=center;verticalAlign=middle;whiteSpace=wrap;rounded=0;" vertex="1" parent="WIyWlLk6GJQsqaUBKTNV-1">
          <mxGeometry x="40" y="1000" width="750" height="30" as="geometry" />
        </mxCell>
        <mxCell id="imBFDSDzrtq43pJAZLCd-25" value="Playbook réalisé par Augmented Security Force - licence&amp;nbsp;CC0 1.0 UNIVERSAL" style="text;html=1;align=center;verticalAlign=middle;whiteSpace=wrap;rounded=0;" vertex="1" parent="WIyWlLk6GJQsqaUBKTNV-1">
          <mxGeometry x="40" y="490" width="350" height="30" as="geometry" />
        </mxCell>
        <mxCell id="imBFDSDzrtq43pJAZLCd-26" value="Playbook réalisé par Augmented Security Force - licence&amp;nbsp;CC0 1.0 UNIVERSAL" style="text;html=1;align=center;verticalAlign=middle;whiteSpace=wrap;rounded=0;" vertex="1" parent="WIyWlLk6GJQsqaUBKTNV-1">
          <mxGeometry x="40" y="720" width="350" height="30" as="geometry" />
        </mxCell>
        <mxCell id="imBFDSDzrtq43pJAZLCd-27" value="&lt;h1 style=&quot;margin-top: 0px;&quot;&gt;Malicious URL&lt;/h1&gt;&lt;p style=&quot;text-align: justify;&quot;&gt;&lt;font style=&quot;&quot;&gt;&lt;span style=&quot;font-size: 11px;&quot;&gt;A &quot;Malicious URL&quot; alert is a critical notification generated by security systems when they detect an attempt to access a website or URL known to host malicious or potentially dangerous content. These URLs can be used to distribute malware, phish for personal information, or execute &quot;drive-by download&quot; attacks on users.&lt;/span&gt;&lt;br&gt;&lt;/font&gt;&lt;/p&gt;" style="text;html=1;whiteSpace=wrap;overflow=hidden;rounded=0;" vertex="1" parent="WIyWlLk6GJQsqaUBKTNV-1">
          <mxGeometry x="42" y="30" width="750" height="90" as="geometry" />
        </mxCell>
      </root>
    </mxGraphModel>
  </diagram>
</mxfile>
